# xmcd
#
# Track frame offsets:
# 150
# 10436
# 22353
# 32699
# 43810
# 54533
# 65844
# 77163
# 88495
# 98110
# 111246
# 122907
# 133727
# 143584
# 155524
# 168310
#
# Disc length: 2418 seconds
#
#
# Revision: 0
# Processed by: cddbd v1.5PL3 Copyright (c) Steve Scherf et al.
# Submitted via: FreeRIP 2.60 
#
DISCID=ea097010
DTITLE=Patsy Cline - The Great Patsy Cline - Disc 2
DYEAR=2000
DGENRE=Folk
TTITLE0=Three Cigarettes In An Ashtray
TTITLE1=Today, Tomorrow And Forever
TTITLE2=Walking Dream
TTITLE3=Stop The World
TTITLE4=I Don't Wanta
TTITLE5=Hungry For Love
TTITLE6=Cry Not For Me
TTITLE7=Just Out Of Reach
TTITLE8=I'm Moving Along
TTITLE9=If I Could See The World
TTITLE10=Let The Teardrops Fall
TTITLE11=I Can See An Angel
TTITLE12=I'm Blue Again
TTITLE13=If I Could Only Stay Asleep
TTITLE14=Just A Closer Walk With Three
TTITLE15=Life's Railway To Heaven
EXTD=
EXTT0=
EXTT1=
EXTT2=
EXTT3=
EXTT4=
EXTT5=
EXTT6=
EXTT7=
EXTT8=
EXTT9=
EXTT10=
EXTT11=
EXTT12=
EXTT13=
EXTT14=
EXTT15=
PLAYORDER=
